<?xml version="1.0" encoding="utf-8" ?><svg xmlns="http://www.w3.org/2000/svg" xmlns:xlink="http://www.w3.org/1999/xlink" width="1000" height="1000" viewBox="0 0 1000 1000"><clipPath id="cl_3"><rect x="3.0517578e-05" y="0.0001373291" width="1000" height="1000"/></clipPath><g clip-path="url(#cl_3)"><path fill="white" transform="matrix(1.60514 0 0 1.56006 -296.95 -56.1621)" d="M0 0L1024 0L1024 1024L0 1024L0 0Z"/><path fill="#C8B704" transform="matrix(1.60514 0 0 1.56006 -296.95 -56.1621)" d="M632.926 93.5769C676.401 93.9741 719.88 93.9556 763.356 93.5214C756.072 102.592 748.803 112.781 741.776 122.187L707.542 167.584L600.93 308.017C614.682 328.23 633.513 352.186 648.39 372.219L736.907 491.933L763.729 528.198C768.278 534.329 774.741 542.552 778.755 548.83C733.526 549.463 688.292 549.613 643.06 549.281C607.244 498.323 571.031 447.646 534.423 397.254L360.689 626.796C356.808 631.953 352.833 637.038 348.764 642.049L262.988 642.186C246.326 642.156 227.346 641.639 210.843 642.379C220.243 630.985 230.279 617.175 239.442 605.284L295.329 532.926L361.741 447.089C374.674 430.326 388.697 412.548 401.098 395.474C393.438 387.129 383.453 371.899 376.528 362.285L333.834 303.489L272.523 220.314C263.135 207.466 247.124 185.89 238.944 172.521C282.654 173.314 328.89 172.499 372.782 172.461C383.539 185.988 397.113 206.682 407.26 221.273L466.89 306.788C473.693 296.303 488.568 279.152 496.901 268.745C514.94 246.177 532.799 223.466 550.477 200.615C568.447 177.362 586.283 154.007 603.987 130.551C609.721 122.915 626.594 99.1804 632.926 93.5769Z"/></g></svg>