<?xml version="1.0" encoding="utf-8" ?><svg xmlns="http://www.w3.org/2000/svg" xmlns:xlink="http://www.w3.org/1999/xlink" width="1204" height="403" viewBox="75 187 1204 403" fill="#ffffff"><path fill="#C6B703" d="M418.194 197.69C451.413 197.079 486.71 197.64 520.047 197.694C512.326 207.251 503.857 216.858 495.817 226.175C461.218 266.265 427.326 307.123 392.411 346.93L475.314 446.306C494.55 469.355 513.817 491.318 532.414 514.949C497.419 515.515 461.137 514.572 425.721 515.01C418.42 507.392 407.879 492.985 400.736 484.428C380.222 459.855 360.731 433.51 340.214 409.022C294.831 462.863 249.049 516.365 202.871 569.526C199.994 573.075 197.2 576.205 194.149 579.595L84.9247 579.576C134.775 521.977 185.498 465.872 235.136 408.014C224.865 396.072 214.7 383.483 204.811 371.183C172.825 331.4 138.161 293.088 107.259 252.488C142.492 252.765 177.727 252.694 212.959 252.275C220.359 260.489 232.595 277.129 239.826 286.331L286.836 345.943C311.413 317.885 336.848 290.413 361.533 262.125C372.181 249.847 382.764 237.514 393.284 225.126C398.343 219.179 413.067 201.063 418.194 197.69Z"/><path d="M864.694 324.382C887.028 313.855 911.231 304.837 931.112 325.158C944.573 318.58 956.302 313.66 971.419 313.216C1008.69 312.121 1004.14 346.916 1004.27 372.961C1004.44 391.011 1004.46 409.062 1004.33 427.112C988.609 427.745 968.66 427.202 952.624 427.205C952.557 397.109 955.021 364.165 950.881 334.217C949.396 323.476 940.65 326.794 933.313 329.092C935.813 342.999 935.339 355.342 935.26 369.386L935.302 427.13L884.101 427.293L884.263 377.886C884.302 365.06 884.722 352.219 883.438 339.446C882.024 325.393 877.925 325.314 866.281 328.737C866.971 340.295 866.616 354.479 866.599 366.211L866.437 427.288L815.291 427.293C814.614 391.494 815.117 352.659 815.095 316.578C827.383 316.059 841.383 314.568 853.689 313.4C860.81 312.552 862.283 318.948 864.694 324.382Z"/><path d="M1264.27 256.973C1266.71 256.709 1266.37 256.339 1267.99 257.366C1269.27 260.816 1268.56 272.86 1268.67 277.947C1269.29 327.691 1269.37 377.44 1268.92 427.186L1225.47 427.282C1223.6 424.84 1221.51 421.513 1219.76 418.907C1197.2 429.599 1178.46 435.495 1157.35 416.55C1118.92 375.522 1157.41 281.534 1218.01 325.599C1218.44 304.45 1218.08 282.074 1218.1 260.826C1232.18 260.252 1249.74 258.053 1264.27 256.973ZM1205.3 415.046C1209.25 415.849 1212.63 416.442 1216.41 414.738C1216.53 414.604 1217.75 413.261 1217.75 413.261C1217.86 387.476 1218.05 361.669 1218.14 335.88C1218.15 330.943 1212.86 328.537 1208.55 328.449C1199.32 335.259 1195.7 345.95 1194.23 356.948C1192.12 372.693 1191.39 404.336 1205.3 415.046Z"/><path d="M633.924 313.38C664.083 310.803 695.718 335.597 699.068 366.19C700.591 380.149 696.463 394.138 687.605 405.033C674.962 420.649 657.21 427.247 637.772 429.25C621.716 429.903 604.915 423.569 592.44 413.569C560.342 387.837 567.922 340.149 603.295 321.687C613.611 316.304 622.313 314.387 633.924 313.38ZM639.352 425.33C651.618 405.137 649.623 360.732 644.617 338.061C643.093 331.162 639.029 319.828 631.318 317.896C618.125 343.384 621.142 382.084 627.537 409.519C629.051 416.016 633.314 422.146 639.352 425.33Z"/><path d="M1070.03 313.386C1072.13 313.251 1074.23 313.163 1076.34 313.122C1090.44 312.931 1110.69 316.572 1120.91 326.909C1134.89 341.053 1132.67 366.721 1132.63 385.118L1132.53 427.265L1087.55 427.242L1082.61 419.271C1060.14 429.072 1037.04 436.69 1019.01 414.259C1018.5 413.344 1018.02 412.419 1017.56 411.483C1009.24 394.595 1014.16 375.066 1031.78 366.859C1049.15 358.772 1064.97 364.415 1081.63 370.329C1083.06 358.378 1083.6 338.165 1075.99 328.56C1062.26 311.24 1038.14 323.471 1024.86 333.423L1020.29 328.347C1038.58 318.101 1049.1 315.312 1070.03 313.386ZM1075.11 416.893C1077.22 416.265 1079.39 415.868 1080.83 414.238C1082.09 408.378 1081.94 381.605 1080.27 375.706C1078.49 373.801 1076.81 373.637 1074.3 373.543C1073.47 373.515 1072.63 373.5 1071.8 373.499C1062.95 386.028 1059.19 406.077 1073.71 415.978C1074.17 416.292 1074.64 416.597 1075.11 416.893Z"/><path fill="#C6B703" d="M807.011 315.417L808.252 315.919L808.472 317.261C805.708 324.188 781.892 357.597 776.327 364.727L796.711 402.377C800.286 409.05 806.518 420.271 808.914 427.215C791.052 427.298 773.19 427.176 755.33 426.85L732.804 383.723C726.575 393.084 708.269 421.377 701.204 428.43C699.401 427.876 699.163 427.867 697.668 426.776C698.628 422.768 725.686 384.898 729.914 378.546L696.65 316.381L751.108 316.389C758.995 330.742 766.492 345.307 773.59 360.066C781.778 348.324 795.889 322.383 807.011 315.417Z"/><path d="M746.334 474.317C752.315 474.174 758.297 474.073 764.28 474.013C783.784 473.944 797.946 480.391 797.626 502.572C797.484 512.355 794.164 519.311 787.082 526.045C779.491 530.22 751.183 534.611 746.029 528.016L746.293 526.42C747.497 524.352 749.509 523.589 751.651 522.46C751.793 510.596 752.389 494.203 751.115 482.649C746.113 479.734 746.284 480.098 746.334 474.317ZM760.863 523.349C767.731 523.338 778.167 523.699 783.386 518.378C785.364 515.226 787.197 512.085 787.897 508.426C792.196 485.946 778.139 481.996 760.656 482.239C760.672 494.945 760.237 510.907 760.863 523.349Z"/><path d="M1061.75 474.405L1072.99 474.388C1079.8 493.041 1087.36 512.133 1094.42 530.762L1084.7 530.856C1082.73 524.935 1081.89 517.444 1075.17 516.675L1055.21 516.701C1054.09 520.56 1051.57 526.832 1050.12 530.791L1040.78 530.674C1046.3 513.364 1055.16 491.646 1061.75 474.405ZM1058.01 509.262L1066.96 509.266L1076.81 509.179C1075.16 504.307 1069.44 486.639 1067.16 482.905C1063.94 491.629 1060.89 500.416 1058.01 509.262Z"/><path d="M891.425 473.235C907.03 473.046 911.451 478.238 917.5 491.728L908.098 492.634C898.481 475.021 883.929 477.294 876.957 494.86C867.085 519.734 900.065 539.488 909.081 509.356C903.321 509.392 896.807 509.598 891.147 508.996C891.13 507.002 891.05 504.053 892.297 502.591C897.292 501.42 910.642 502.011 916.477 502.156C916.628 508.351 917.894 524.436 915.344 529.891C914.906 530.827 914.249 530.707 913.187 530.914C910.855 530.128 909.585 527.472 908.177 525.287C868.38 554.202 844.761 481.39 891.425 473.235Z"/><path d="M982.236 474.371C997.227 473.988 1013.12 474.279 1028.17 474.312L1028.18 482.273L1009.78 482.346C1009.63 492.128 1009.53 501.911 1009.5 511.694C1009.57 518.054 1009.55 524.415 1009.43 530.775L1000.77 530.763C1000.1 516.277 1000.56 497.171 1000.54 482.333C992.001 482.452 982.124 485.663 982.236 474.371Z"/><path d="M1118.98 474.312L1127.8 474.372C1128.17 489.349 1126.67 508.905 1128.08 523.347C1133.65 523.284 1152.42 522.633 1156.91 524.109C1158.14 525.898 1157.97 528.212 1158.09 530.497C1154.71 531.214 1124.44 530.725 1119.1 530.683C1118.09 515.084 1118.79 490.319 1118.98 474.312Z"/><path d="M947.348 474.34L956.411 474.36C956.908 492.492 956.672 512.528 956.476 530.705L947.327 530.794L947.348 474.34Z"/><path d="M827.201 474.351L836.268 474.372C836.232 492.864 836.572 512.239 836.135 530.647L827.067 530.738L827.201 474.351Z"/></svg>
