<svg xmlns="http://www.w3.org/2000/svg" width="1024" height="1024" viewBox="0 0 1024 1024"><path fill="#183c29" d="M434.743 217.619c4.109-11.528 8.627-23.925 20.511-29.535 21.252-10.032 85.122-9.479 108.054-1.184 8.977 3.247 14.911 10.014 18.841 18.534a84 84 0 0 1 4.278 11.715c9.933 2.941 21.692 6.017 31.148 9.985 39.934 16.757 72.203 41.022 93.336 79.148q.674-17.805 1.769-35.59c.474-9.092-.702-34.258 13.678-31.443 22.525 4.41 24.729 39.656 26.467 56.513a1789 1789 0 0 1 4.333 48.165c4.04 4.026 10.066 10.054 12.575 15.266 7.931 16.476 6.166 42.586 6.673 60.534.45 15.891-.985 33.013-5.66 47.943 7.02 3.393 13.021 6.142 18.62 11.753 15.898 15.93 14.067 36.51 4.496 55.304-20.204 39.672-56.772 69.499-92.175 95.012a963 963 0 0 1-17.626 12.472c-3.214 2.188-8.918 5.722-11.775 8.032-3.351 9.302-7.5 21.188-11.733 30.15-20.473 43.353-53.514 89.099-97.69 110.371-28.439 13.694-65.26 14.524-94.756 3.463-47-17.627-84.518-66.702-105.438-110.753-1.411-2.971-3.599-7.816-4.736-10.821-8.55 9.838-14.945 16.784-25.007 25.155l-3.99 3.283c-16.98 13.707-41.04 25.952-62.017 13.79-45.973-26.656-7.488-88.393 14.559-118.317 15.256-20.706 31.71-38.261 49.181-56.4l2.698-2.562c3.125-2.75 5.672-5.502 9.027-8.221-12.67-11.289-21.259-20.124-31.232-34.081-4.046.517-8.112.965-12.193 1.072-14.481.38-27.326-3.814-37.888-13.914-13.85-13.245-15.166-30.843-15.475-49.057-.29-17.108-1.42-57.576 5.37-71.838 3.13-6.575 8.189-11.495 13.178-16.662.664-5.498.937-12.584 1.425-18.305a1998 1998 0 0 1 3.395-35.066c.913-8.634 1.882-18.961 4.342-27.214a47.6 47.6 0 0 1 7.144-14.676c4.799-6.571 15.218-14.685 22.791-8.431 5.762 4.76 5.027 21.317 5.459 28.251l2.449 36.359c9.639-16.36 15.346-22.673 27.887-36.49l2.065-1.99c26.966-25.197 57.635-41.228 93.642-49.72"/><path fill="#1b3220" d="M333.357 537.602c1.609 2.659 2.18 2.898 2.215 5.852l-.559.957c-2.434-.36-3.118-2.238-4.354-4.247z"/><path fill="#1b3220" d="M341.101 267.339c2.487 3.012 3.516 4.409 5.208 8.098-2.547-1.673-5.696-3.497-7.273-6.108z"/><path fill="#1b3220" d="M328.936 701.091c-.77-1.704-1.953-3.351-1.652-4.792 1.924-.154 2.651.749 4.737 1.283l.905.226z"/><defs><linearGradient id="a" x1="510.769" x2="510.18" y1="565.533" y2="219.973" gradientUnits="userSpaceOnUse"><stop offset="0" stop-color="#cbe4c8"/><stop offset="1" stop-color="#fff"/></linearGradient></defs><path fill="url(#a)" d="M380.374 251.226c6.158-4.252 18.385-9.572 25.557-12.431 49.109-19.571 105.56-24.555 157.445-15.302 50.869 9.071 101.323 33.546 131.131 77.121 26.845 39.242 35.51 95.308 26.978 141.692-2.178 11.838-5.545 21.938-11.617 32.311l-1.309 2.865c-10.422 20.037-29.664 39.767-48.573 52.391-60.488 40.383-151.709 43.139-221.018 30.133-45.855-8.605-92.824-31.19-118.674-71.189-24.473-37.869-27.942-79.321-19.435-122.612 7.338-37.339 25.213-71.828 54.008-97.056 6.408-5.614 16.052-11.936 23.283-16.721z"/><path fill="#183c29" d="M353.847 490.307c-47.017-31.24-43.529-96.034-14.929-138.733 23.827-36.872 67.827-56.791 110.009-64.546 90.812-16.443 229.187-1.375 252.586 108.161 11.414 56.261-17.344 101.518-74.74 111.209-30.263 5.617-59.958 1.316-89.818-4.418-16.679-3.202-36.088-3.167-52.802.095-41.991 8.195-88.166 13.114-126.866-9.564z"/><path fill="#1b3220" d="M353.847 490.307c1.432-1.348 2.968-2.579 5.066-2.076 1.112 1.873-.279 2.727-1.626 4.28z"/><path fill="#e1a023" d="M424.822 389.142c16.756-1.873 31.766 6.271 41.014 20.031 3.424 5.095 4.321 11.337-1.691 14.941-8.798 5.273-14.337-8.842-20.328-12.673-4.719-3.185-6.462-3.574-11.819-4.812-22.453-1.337-22.738 17.945-32.981 19.703-2.213.38-5.327-.703-7.14-1.958-1.453-1.005-2.402-2.39-2.692-4.143-.694-4.192 1.826-8.864 4.196-12.156 7.595-10.55 18.698-16.941 31.441-18.933"/><path fill="#e1a023" d="M586.58 389.147c17.018-1.305 31.776 5.473 41.722 19.579 1.34 1.9 4.301 7.706 3.231 10.047-8.077 17.674-18.138-1.583-25.791-7.631-2.542-2.009-4.936-2.757-7.598-3.65-8.783-2.198-16.639-.541-23.257 6.234-6.413 6.565-16.715 20.757-22.413 3.865-.9-2.67 2.33-7.976 3.887-10.19 7.062-10.05 18.183-16.324 30.219-18.254"/><path fill="#1b3220" d="M640.975 496.739c2.34-.313 5.064-.648 7.238.255-2.65.857-4.732.933-7.238-.255"/><path fill="#fefefe" d="M309.805 455.695c3.428 1.559 2.405 10.1 1.521 13.21-2.778-3.589-3.074-9.055-1.521-13.21"/><defs><linearGradient id="b" x1="511.431" x2="510.613" y1="790" y2="551.478" gradientUnits="userSpaceOnUse"><stop offset="0" stop-color="#c6e0c2"/><stop offset="1" stop-color="#fff"/></linearGradient></defs><path fill="url(#b)" d="M362.269 542.849a230.6 230.6 0 0 0 53.042 22.075c61.836 17.707 140.069 17.259 201.579-2.695 15.512-5.033 28.597-11.392 42.781-19.269l3.688 6.885c16.047 43.694 5.344 86.08-12.988 127.198-17.902 40.151-56.788 91.562-99.491 107.117a114.84 114.84 0 0 1-87.891-3.826c-45.143-21.109-84.282-79.486-100.293-125.363-12.187-34.922-17.16-69.006-4.279-104.592 1.126-2.684 2.456-4.985 3.852-7.53"/><path fill="#bbdab8" d="M362.269 542.849a230.6 230.6 0 0 0 53.042 22.075c61.836 17.707 140.069 17.259 201.579-2.695 15.512-5.033 28.597-11.392 42.781-19.269l3.688 6.885C602.053 590.46 508.1 593.692 437.653 580.51c-28.839-5.396-54.065-15.242-79.236-30.131 1.126-2.684 2.456-4.985 3.852-7.53"/><path fill="#183c29" d="M493.024 602.781c19.84-1.238 83.44-.344 98.95 8.872a27.13 27.13 0 0 1 12.564 17.053c3.954 16.228-10.037 51.371-19.215 65.686-15.728 24.534-30.385 35.123-57.763 41.778-65.128 10.025-103.419-40.242-110.74-100.116-1.297-10.615 7.664-23.479 17.611-26.502 18.152-5.516 39.778-5.91 58.593-6.771"/><path fill="#e1a023" d="M529.751 724.697c-11.744 2.967-24.757 2.809-36.51-.031-20.14-4.866-36.755-18.596-47.403-36.145-7.853-12.94-21.456-43.254-17.478-58.112 1.105-4.124 3.211-7.007 6.929-9.101 20.322-11.447 121.892-9.688 145.461-2.822 4.866 1.418 9.469 4.702 11.821 9.282 4.457 8.677.284 21.422-2.638 29.993-9.338 27.389-22.903 50.134-49.643 63.33-.847 8.385-5.52 4.148-10.539 3.606"/><path fill="#1b3220" d="M529.751 724.697c3.433-.73 7.291-2.306 10.539-3.606-.847 8.385-5.52 4.148-10.539 3.606"/><path fill="#fefefe" d="M764.704 477.519c15.87 5.466 24.91 13.725 24.909 31.593-.94 27.975-29.759 57.632-49.396 75.98a473 473 0 0 1-63.686 49.349c5.094-22.466 6.041-32.794 5.348-55.73-2.608-17.657-4.166-25.685-13.038-41.554 18.852-13.378 27.957-24.042 42.258-41.756 25.153 2.031 35.869.839 53.605-17.882"/><path fill="#bbdab8" d="M789.613 509.112c-.94 27.975-29.759 57.632-49.396 75.98a473 473 0 0 1-63.686 49.349c5.094-22.466 6.041-32.794 5.348-55.73l4.246 2.392 1.449.635c4.821 2.11 12.888 4.44 18.416 3.388 25.339-4.823 53.633-39.13 70.135-57.735 4.484-5.057 8.922-12.633 13.105-17.811z"/><path fill="#cbe2c7" d="m686.125 581.103 1.449.635c.211 10.073 1.234 25.289-.871 34.81-1.565-6.869-.764-27.489-.578-35.445"/><path fill="#fefefe" d="M352.462 536.256c-15.135 36.761-15.854 56.459-7.68 95.258 2.907 9.892 6.379 20.114 9.03 29.939-18.017 21.323-58.107 65.39-87.722 39.285-38.682-36.032 56.328-143.815 86.372-164.482"/><path fill="#bbdab8" d="M344.782 631.514c2.907 9.892 6.379 20.114 9.03 29.939-18.017 21.323-58.107 65.39-87.722 39.285 4.849-.49 7.877-.679 12.749-2.115 22.082-6.505 42.492-24.855 54.39-44.164 4.385-7.116 7.456-15.491 11.553-22.945"/><defs><linearGradient id="c" x1="323.505" x2="251.457" y1="469.988" y2="368.185" gradientUnits="userSpaceOnUse"><stop offset="0" stop-color="#cde5cc"/><stop offset="1" stop-color="#fff"/></linearGradient></defs><path fill="url(#c)" d="M292.002 345.152c.766-.127 1.122-.055 1.908-.023.984 1.872-3.091 17.646-3.738 21.116-8.202 43.945-5.34 78.995 15.396 119.216-10.664.328-14.907.581-24.828-2.905-16.001-7.221-22.817-19.837-23.236-36.878-.566-23.063-2.42-46.777.925-69.706 2.762-18.931 16.065-27.474 33.573-30.82"/><defs><linearGradient id="d" x1="716.781" x2="760.211" y1="483.588" y2="355.002" gradientUnits="userSpaceOnUse"><stop offset="0" stop-color="#d0e4ca"/><stop offset="1" stop-color="#fff"/></linearGradient></defs><path fill="url(#d)" d="M726.545 344.441c11.702.446 24.336 6.529 30.986 16.369a37 37 0 0 1 5.575 13.416c3.896 18.69 2.33 62.293-.302 82.176-1.426 10.77-9.959 18.733-18.727 24.575-9.229 4.81-17.203 4.37-27.273 4.028 24.697-49.765 22.544-88.347 9.741-140.564"/><path fill="#fefefe" d="M503.549 191.785c15.763-1.119 42.776 1.241 58.126 6.5 6.346 2.174 10.114 10.588 12.501 16.607-17.873-4.19-37.019-5.982-55.339-6.412-26.672-.7-45.209 1.516-71.368 6.36 6.726-16.173 11.954-18.739 29.443-20.679 8.813-.978 17.771-1.686 26.637-2.376"/><path fill="#e1a023" d="m290.862 254.585 5.463-4.744 2.867 41.833c.839 12.598 3.376 29.69.305 41.438-9.396 1.3-14.342 2.303-23.599 5.341a721 721 0 0 1 5.059-53.237c.596-4.587 1.898-15.368 3.335-19.486-2.282-5.446 1.387-9.725 6.57-11.145"/><path fill="#1b3220" d="M284.292 265.73c-2.282-5.446 1.387-9.725 6.57-11.145-2.925 3.827-4.657 6.663-6.57 11.145"/><path fill="#e1a023" d="M725.755 250.279c1.892 1.412 4.229 3.665 5.722 5.518a31 31 0 0 1 5.65 10.544c3.447 11.566 4.202 26.087 5.486 38.23.678 6.409 3.402 26.842 2.759 32.575-1.395.681-1.525.241-3.512-.298-7.167-2.515-11.45-3.061-18.953-3.75-2.455-5.958-2.603-10.435-1.893-16.778 2.376-21.213 1.417-45.127 4.741-66.041"/><path fill="#1b3220" d="M372.016 245.64c3.973 1.608 6.234 1.961 8.358 5.586l-2.224 1.202c-2.925-1.699-4.35-4.051-6.134-6.788"/><path fill="#1b3220" d="M709.868 474.617c1.774 1.227 2.009 1.273 2.967 3.118l.031 1.267-.85.561c-1.742-.416-2.113-.921-3.457-2.081z"/></svg>
