<svg xmlns="http://www.w3.org/2000/svg" viewBox="0 0 260 300" width="260" height="300">
  <ellipse cx="130" cy="280" rx="70" ry="14" fill="#1b1916" opacity="0.08"/>
  <rect x="115" y="40" width="10" height="30" rx="5" fill="#828e0e"/>
  <circle cx="120" cy="34" r="9" fill="#d9cc01"/>
  <rect x="55" y="70" width="150" height="120" rx="28" fill="#9ba914"/>
  <rect x="75" y="95" width="110" height="60" rx="16" fill="#1b1916"/>
  <circle cx="105" cy="125" r="13" fill="#d9cc01"/>
  <circle cx="155" cy="125" r="13" fill="#d9cc01"/>
  <rect x="95" y="145" width="70" height="6" rx="3" fill="#d9cc01" opacity="0.7"/>
  <rect x="30" y="100" width="24" height="70" rx="12" fill="#828e0e"/>
  <rect x="206" y="100" width="24" height="70" rx="12" fill="#828e0e"/>
  <rect x="80" y="190" width="100" height="80" rx="20" fill="#828e0e"/>
  <rect x="95" y="270" width="24" height="24" rx="8" fill="#1b1916"/>
  <rect x="141" y="270" width="24" height="24" rx="8" fill="#1b1916"/>
</svg>
