<?xml version="1.0" encoding="utf-8" ?><svg xmlns="http://www.w3.org/2000/svg" xmlns:xlink="http://www.w3.org/1999/xlink" width="599" height="493" viewBox="0 0 599 493"><path fill="#1C3D27" d="M193.308 65.4874C193.292 60.9559 193.527 57.8179 194.652 53.4316C198.846 36.8505 209.867 32.171 224.632 27.5939C242.482 22.0607 259.557 19.6168 278.078 18.2711C294.696 17.0637 310.922 14.6224 323.726 28.0054C328.495 32.9906 330.227 38.3188 332.647 44.577C341.647 45.2149 350.493 47.0257 359.277 48.8668C398.692 57.1275 433.801 75.9361 460.307 106.584C462.83 109.502 466.918 115.385 469.092 117.51L466.818 82.2946C466.277 74.9509 465.103 67.3428 465.534 60.0341C465.928 56.3856 469.211 52.4437 473.044 52.5058C478.578 52.5955 483.636 57.0582 487.461 60.5756C498.207 70.4558 500.025 86.2377 503.711 99.6263C506.024 108.03 507.951 116.74 509.93 125.24C511.375 132.057 513.809 139.837 514.653 146.586C525.655 153.937 532.074 160.626 534.554 174.12C535.865 181.248 537.127 188.567 538.252 195.825C540.856 212.62 544.561 231.536 542.341 248.454C541.422 255.461 537.44 263.972 533.544 269.884C525.471 282.135 514.015 288.137 499.986 290.889C497.133 291.449 491.908 292.202 489.309 292.935C482.378 305.185 475.865 314.184 466.425 324.681C464.56 326.754 461.691 330.26 459.599 331.847C479.061 340.431 502.607 364.614 515.677 381.503C518.884 385.647 521.648 390.796 524.795 394.585C528.469 395.594 532.276 396.039 535.924 397.013C546 399.701 556.29 403.614 564.134 410.701C574.176 419.773 576.91 432.462 575.879 445.487C575.169 454.461 570.945 463.294 562.843 467.864C557.677 470.674 549.78 472.107 544.027 470.376C542.101 469.78 540.274 468.903 538.604 467.775C535.112 470.837 532.041 472.787 527.374 473.626C518.374 475.244 509.048 473.123 502.9 466.09C491.607 472.325 477.113 467.484 470.999 456.242C468.875 452.337 467.393 446.712 467.349 442.261C463.443 442.273 440.311 443.158 439.381 442.486C426.82 442.215 413.38 442.379 400.79 442.485C398.357 442.786 387.891 442.916 385.476 442.663C380.928 442.428 373.94 442.642 369.227 442.644L337.056 442.662L242.217 442.677C241.177 442.796 230.991 442.477 229.537 442.406C222.435 442.54 214.942 442.45 207.827 442.372C201.441 442.75 191.261 442.404 184.485 442.468C183.072 443.232 149.992 442.32 146.151 442.272C145.466 446.002 144.932 450.354 143.159 453.717C136.269 466.782 124.14 470.868 110.951 464.925C101.73 474.65 85.6484 476.078 75.5 466.867C63.2928 474.035 50.3903 469.946 43.1933 457.811C37.8521 448.805 38.2653 437.696 40.6709 427.871C47.4522 404.49 76.8744 394.712 98.6164 393.943C101.081 390.808 103.52 387.428 106.077 384.42C113.782 375.425 122.643 367.489 132.43 360.816C127.414 357.047 117.919 348.363 113.578 343.806C98.5534 348.301 84.8722 350.43 70.4007 342.529C60.6595 337.208 52.1204 326.366 49.3725 315.498C46.7231 305.02 44.8395 294.105 43.3218 283.192C40.7914 264.998 33.7174 243.08 42.2735 225.635C44.2736 221.557 47.995 217.673 50.5175 213.945C49.0092 199.442 49.0082 185.106 48.4017 170.626C47.6247 152.074 44.7831 134.239 57.7867 118.686C61.3113 114.471 67.7241 110.22 72.3571 114.533C74.5429 116.567 75.1103 118.783 75.9568 121.589C77.638 127.845 78.7276 134.677 79.8692 141.085C81.2264 148.578 82.68 156.053 84.2298 163.508C85.0777 167.719 85.7267 171.765 86.7615 175.941C88.1437 170.563 92.6415 160.797 95.1376 155.654C110.981 123.013 136.205 96.9747 167.481 78.8152C177.686 72.8902 182.267 70.0753 193.308 65.4874Z"/><path fill="#FEFEFE" d="M449.744 348.789C462.63 371.656 458.913 399.971 452.649 424.399C451.17 430.166 447.932 437.593 446.762 442.484C444.941 442.475 441.052 442.357 439.381 442.486C426.82 442.215 413.38 442.379 400.79 442.485C398.357 442.786 387.891 442.916 385.476 442.663C380.928 442.428 373.94 442.642 369.227 442.644L337.056 442.662L242.217 442.677C241.177 442.796 230.991 442.477 229.537 442.406C222.435 442.54 214.942 442.45 207.827 442.372C206.287 441.99 202.96 442.067 201.237 442.047C195.819 433.876 190.023 423.059 189.238 413.101C188.851 408.185 193.923 400.803 198.922 400.681C207.645 400.469 216.918 402.255 225.738 403.074C238.091 404.18 250.488 404.703 262.89 404.641C282.364 404.519 301.808 403.11 321.097 400.425C359.548 394.946 409.09 381.933 440.402 358.278C444.727 355.011 446.189 352.334 449.559 348.97L449.744 348.789Z"/><path fill="#EDA21D" d="M242.217 442.677C241.254 442.548 240.263 442.592 239.639 442.053C244.464 435.863 292.671 428.985 303.697 427.707C326.13 425.106 352.806 422.098 375.404 423.88C387.138 424.806 390.601 431.801 390.524 442.524C389.053 442.529 386.875 442.475 385.476 442.663C380.928 442.428 373.94 442.642 369.227 442.644L337.056 442.662L242.217 442.677Z"/><path fill="#1C3D27" d="M229.537 442.406C232.473 429.143 251.215 426.965 262.084 424.827C292.745 418.854 323.824 415.273 355.04 414.117C363.58 413.811 373.343 413.15 381.67 414.994C395.234 417.997 401.65 429.285 400.79 442.485C398.357 442.786 387.891 442.916 385.476 442.663C386.875 442.475 389.053 442.529 390.524 442.524C390.601 431.801 387.138 424.806 375.404 423.88C352.806 422.098 326.13 425.106 303.697 427.707C292.671 428.985 244.464 435.863 239.639 442.053C240.263 442.592 241.254 442.548 242.217 442.677C241.177 442.796 230.991 442.477 229.537 442.406Z"/><path fill="#CDE1BC" d="M162.15 377.881C164.919 378.938 167.665 380.181 170.44 381.265C183.854 386.509 197.318 389.756 211.506 392.101C226.433 394.576 241.522 395.957 256.651 396.234C301.308 396.899 355.555 388.11 397.143 371.592C409.813 366.561 424.848 358.691 436.125 351.211C439.495 348.975 443.31 345.937 446.731 343.488C447.511 345.044 448.833 347.095 449.744 348.789L449.559 348.97C446.189 352.334 444.727 355.011 440.402 358.278C409.09 381.933 359.548 394.946 321.097 400.425C301.808 403.11 282.364 404.519 262.89 404.641C250.488 404.703 238.091 404.18 225.738 403.074C216.918 402.255 207.645 400.469 198.922 400.681C193.923 400.803 188.851 408.185 189.238 413.101C190.023 423.059 195.819 433.876 201.237 442.047C202.96 442.067 206.287 441.99 207.827 442.372C201.441 442.75 191.261 442.404 184.485 442.468C181.272 442.135 170.233 442.45 166.528 442.47C165.703 438.902 163.832 433.967 162.805 430.18C158.335 413.685 154.4 394.014 162.15 377.881Z"/><path fill="#FEFEFE" d="M134.197 115.971C206.775 41.0868 365.628 26.0312 442.796 101.032C451.057 109.053 458.377 117.991 464.613 127.671C482.629 155.74 494.173 194.003 494.928 227.495C495.68 260.82 483.939 293.058 460.909 317.458C454.081 326.369 440.148 337.298 430.756 343.368C383.658 373.809 323.363 385.116 267.98 386.742C218.771 388.187 161.981 377.493 125.188 342.631C96.7883 315.468 86.3692 281.696 85.6729 242.991C84.7958 194.241 100.104 151.222 134.197 115.971Z"/><path fill="#1C3D27" d="M124.783 200.035C128.216 194.503 131.591 189.233 135.688 184.145C169.58 142.052 223.882 122.178 276.057 115.146C324.238 108.723 377.842 111.639 420.308 137.473C447.378 153.94 467.186 179.65 473.661 210.82C478.216 232.745 476.362 254.686 463.954 273.833C449.173 296.643 425.733 308.041 399.972 313.871C382.801 317.625 365.243 319.315 347.671 318.906C332.912 318.579 317.352 317.274 302.715 319.086C287.746 320.939 273.558 326.837 259.514 331.696C237.71 339.241 202.273 346.017 179.37 341.97C147.147 336.039 123.745 320.397 113.201 288.388C104.135 260.865 109.466 233.547 120.883 207.567C122.008 205.006 123.526 202.547 124.783 200.035Z"/><path fill="#EDA21D" d="M215.298 228.472C229.907 227.556 243.356 232.82 252.101 245.156C255.052 249.317 253.053 254.884 248.708 257.187C242.475 260.492 237.775 254.092 233.397 250.61C231.231 248.856 228.773 247.499 226.134 246.602C219.477 244.392 213.403 245.3 207.249 248.389C200.019 252.52 197.374 258.211 193.131 265.146C188.672 272.436 178.475 269.491 177.212 261.865C176.391 256.907 181.84 248.598 184.864 244.731C192.413 235.077 203.2 229.865 215.298 228.472Z"/><path fill="#EDA21D" d="M366.85 205.384C380.65 204.303 400.786 212.688 406.327 226.647C407.948 230.732 403.608 235.094 399.675 236.014C394.744 237.169 391.505 233.913 388.266 230.706C381.024 223.15 373.827 220.671 363.452 223.154C355.377 225.841 351.55 230.314 347.128 237.208C344.935 240.57 342.814 243.227 338.714 244.073C334.54 244.935 330.436 240.35 329.992 236.549C329.439 231.824 333.548 225.217 336.421 221.685C344.413 211.859 354.291 206.653 366.85 205.384Z"/><path fill="#092511" d="M122.042 212.929C122.719 213.193 122.466 213.059 122.996 213.643C123.525 215.47 123.367 216.533 122.753 218.326L122.265 218.109C121.283 216.796 121.833 214.593 122.042 212.929Z"/><path fill="#CDE1BC" d="M460.909 317.458C454.081 326.369 440.148 337.298 430.756 343.368C383.658 373.809 323.363 385.116 267.98 386.742C218.771 388.187 161.981 377.493 125.188 342.631C96.7883 315.468 86.3692 281.696 85.6729 242.991C84.7958 194.241 100.104 151.222 134.197 115.971C134.995 119.208 129.41 125.856 127.898 129.361C119.994 147.691 115.622 167.61 119.992 187.44C120.598 190.174 122.665 198.482 124.783 200.035C123.526 202.547 122.008 205.006 120.883 207.567C109.466 233.547 104.135 260.865 113.201 288.388C123.745 320.397 147.147 336.039 179.37 341.97C178.871 342.131 178.764 342.202 178.292 342.435C178.177 342.991 178.077 343.134 178.433 343.626C179.64 345.292 182.717 346.547 184.523 347.458C197.279 353.895 210.92 357.684 224.971 360.093C237.146 362.18 249.642 363.631 261.984 364.148C308.639 366.102 376.442 358.017 419.369 340.062C428.981 336.042 438.854 331.325 447.556 325.538C450.586 323.523 453.286 321.04 456.27 318.967C457.77 317.926 459.014 317.11 460.909 317.458Z"/><path fill="#FEFEFE" d="M475.416 429.178C476.946 420.992 481.704 413.766 488.619 409.124C507.284 396.331 550.104 403.236 563.26 422.233C567.301 428.067 568.785 436.777 567.813 443.755C566.713 454.659 561.038 463.8 548.648 462.978C546.445 462.831 544.869 462.166 543.004 461.001C544.4 455.763 544.73 453.202 545.449 447.934C545.552 444.395 546.454 437.426 542.271 435.95C541.18 436.069 541.622 435.852 540.858 436.53C539.889 438.924 539.152 446.296 538.364 449.773C537.87 453.536 535.754 459.888 532.772 462.397C525.443 468.563 514.83 466.311 508.759 459.747C509.112 455.532 510.288 451.723 510.86 447.54C511.131 444.202 512.88 433.437 508.122 432.92C504.85 434.047 504.091 445.065 503.089 448.642C502.732 455.973 498.445 461.299 490.598 460.441C486.37 459.973 482.512 457.815 479.902 454.457C475.182 448.461 474.515 436.555 475.416 429.178Z"/><defs><linearGradient id="gradient_0" gradientUnits="userSpaceOnUse" x1="491.05219" y1="460.06647" x2="486.89801" y2="429.54831"><stop offset="0" stop-color="#C3DBAC"/><stop offset="1" stop-color="#C8D6C2"/></linearGradient></defs><path fill="url(#gradient_0)" d="M475.416 429.178C475.493 429.252 475.571 429.326 475.647 429.402C480.583 434.364 475.165 441.419 486.429 446.887C489.717 448.483 493.151 449.274 496.804 449.335C498.83 449.368 501.176 449.383 503.089 448.642C502.732 455.973 498.445 461.299 490.598 460.441C486.37 459.973 482.512 457.815 479.902 454.457C475.182 448.461 474.515 436.555 475.416 429.178Z"/><path fill="#CDE1BC" d="M510.86 447.54C511.046 449.002 511.01 449.226 512.512 450.312C517.379 453.829 524.959 454.865 530.788 454.197C534.616 453.759 535.999 450.511 538.364 449.773C537.87 453.536 535.754 459.888 532.772 462.397C525.443 468.563 514.83 466.311 508.759 459.747C509.112 455.532 510.288 451.723 510.86 447.54Z"/><path fill="#CDE1BC" d="M545.449 447.934C545.681 450.92 545.196 451.224 548.35 452.299C554.721 454.471 559.597 452.397 563.947 447.551C565.033 446.34 566.518 444.65 567.813 443.755C566.713 454.659 561.038 463.8 548.648 462.978C546.445 462.831 544.869 462.166 543.004 461.001C544.4 455.763 544.73 453.202 545.449 447.934Z"/><path fill="#FEFEFE" d="M47.3269 440.317C47.315 412.315 76.1288 403.63 99.1855 402.578C111.918 401.998 126.545 405.842 134.08 416.858C136.754 420.768 138.653 425.315 138.731 430.092C138.289 438.233 138.458 449.72 131.945 455.462C127.189 459.656 119.235 461.365 114.437 456.309C112.391 454.168 111.338 449.889 110.811 446.941C109.829 443.53 109.564 432.73 105.985 432.142C102.216 433.571 103.396 442.345 103.562 445.574C104.125 449.737 104.821 454.477 105.182 458.627C100.718 464.981 89.1078 466.737 82.774 462.293C78.3265 459.173 76.795 453.427 76.0067 448.319C75.2324 445.247 74.6107 436.899 73.3851 435.684C67.9765 433.885 68.7205 446.942 69.1444 449.881C69.5783 452.975 70.4372 457.01 71.2165 460.012C68.8689 461.621 67.0548 462.225 64.2088 462.273C60.3422 462.355 56.6081 460.864 53.8619 458.141C49.0418 453.426 47.3624 446.863 47.3269 440.317Z"/><path fill="#CDE1BC" d="M103.562 445.574C104.125 449.737 104.821 454.477 105.182 458.627C100.718 464.981 89.1078 466.737 82.774 462.293C78.3265 459.173 76.795 453.427 76.0067 448.319C80.7592 451.632 81.6713 453.679 88.2038 453.742C93.7428 453.796 103.507 452.863 103.562 445.574Z"/><path fill="#CDE1BC" d="M138.731 430.092C138.289 438.233 138.458 449.72 131.945 455.462C127.189 459.656 119.235 461.365 114.437 456.309C112.391 454.168 111.338 449.889 110.811 446.941C121.77 450.075 132.671 449.042 136.102 436.411C136.916 433.416 137.523 432.636 138.731 430.092Z"/><path fill="#CDE1BC" d="M47.3269 440.317C47.6927 442.78 53.5322 448.299 55.5096 449.906C58.7344 452.527 65.1862 453.521 68.8362 451.396C69.0989 450.676 69.0804 450.653 69.1444 449.881C69.5783 452.975 70.4372 457.01 71.2165 460.012C68.8689 461.621 67.0548 462.225 64.2088 462.273C60.3422 462.355 56.6081 460.864 53.8619 458.141C49.0418 453.426 47.3624 446.863 47.3269 440.317Z"/><path fill="#CDE1BC" d="M77.8143 210.345C78.141 210.961 77.4623 213.423 77.3391 214.261C72.163 249.51 77.2753 288.447 94.527 319.889C97.7546 325.772 102.369 331.421 106.458 336.725C97.2654 338.758 88.7522 340.076 79.6366 337.054C77.4033 336.287 75.2652 335.267 73.2645 334.013C63.7306 327.969 58.891 319.649 56.7555 308.81C54.8229 299.001 53.1089 288.681 51.569 278.729C49.8015 266.177 46.489 253.228 47.0151 240.499C47.6529 225.068 63.9647 213.353 77.8143 210.345Z"/><path fill="#FEFEFE" d="M486.671 149.65C487.872 149.655 489.072 149.679 490.272 149.723C505.059 150.285 520.498 156.854 525.168 172.24C527.519 179.987 528.548 189.316 529.645 197.419C531.626 212.05 534.724 227.529 534.036 242.322C532.55 265.729 518.074 280.856 494.6 282.594C497.955 274.196 500.125 267.667 502.273 258.836C509.559 223.263 501.69 182.277 486.671 149.65Z"/><path fill="#CDE1BC" d="M502.273 258.836C512.198 258.898 524.79 251.455 531.491 244.557C532.491 243.526 533.48 243.814 534.036 242.322C532.55 265.729 518.074 280.856 494.6 282.594C497.955 274.196 500.125 267.667 502.273 258.836Z"/><path fill="#FEFEFE" d="M291.654 26.4479C308.832 25.6334 313.936 28.0935 322.991 42.634C287.316 41.0447 260.823 44.0234 226.271 52.9904C217.011 55.5627 210.775 58.1342 202.097 60.8821C206.058 42.7287 211.866 40.2411 228.836 35.5152C249.469 29.7692 270.323 27.4182 291.654 26.4479Z"/><path fill="#FEFEFE" d="M456.336 340.428C459.492 342.05 463.674 344.091 466.596 346.119C479.677 355.196 490.759 366.077 501.285 377.948C505.451 382.647 510.076 389.252 514.095 393.484C501.575 393.749 494.401 394.682 483.485 401.68C477.953 398.765 473.605 395.711 468.614 392.006C468.628 390.165 468.631 388.596 468.511 386.761C468.237 372.735 467.15 361.547 460.94 348.635C459.683 346.022 458.053 342.714 456.336 340.428Z"/><path fill="#EDA21D" d="M67.2206 121.552L67.6831 122.105C68.979 128.226 69.8349 134.247 70.9025 140.401C72.3662 148.684 73.9117 156.951 75.5388 165.203C76.6581 170.978 77.8276 176.743 79.0471 182.497C79.7732 185.935 80.6402 189.711 81.0608 193.196C81.2537 194.795 80.0773 197.66 79.4858 199.304C74.9135 200.658 71.1998 201.878 66.8182 203.746C63.9849 205.075 61.2243 206.633 58.4742 208.133L56.8994 170.417C56.5915 162.254 56.0637 152.353 56.4635 144.324C56.8624 135.602 60.7361 127.401 67.2206 121.552Z"/><path fill="#EDA21D" d="M473.731 61.1872C477.954 62.3706 485.224 70.1363 487.182 74.0349C490.363 80.3653 492.105 88.2929 493.851 95.1672C496.18 104.5 498.443 113.849 500.638 123.215C502.074 129.38 503.512 136.146 505.234 142.171C504.086 142.025 502.308 141.552 501.15 141.271C495.008 139.781 489.145 139.735 482.85 139.667C481.915 137.727 479.168 133.744 478.933 131.896C478.22 126.3 478.43 120.3 477.984 114.503C476.61 96.6176 475.603 79.0399 473.731 61.1872Z"/><path fill="#CDE1BC" d="M139.021 366.044C139.967 366.057 151.644 372.99 153.57 374.003C145.405 390.774 147.383 414.504 153.141 431.711L148.632 431.336C147.994 425.61 146.706 421.297 144.169 416.152C142.996 413.929 141.618 411.819 140.053 409.851C132.262 400.177 121.149 395.333 109.03 394.009C118.015 383.323 128.022 374.609 139.021 366.044Z"/><path fill="#CDE1BC" d="M460.426 431.312C466.237 418.032 467.547 401.018 468.511 386.761C468.631 388.596 468.628 390.165 468.614 392.006C473.605 395.711 477.953 398.765 483.485 401.68C482.628 402.564 479.749 404.451 478.491 405.649C470.778 412.991 466.923 420.877 465.26 431.247L460.426 431.312Z"/><path fill="#092511" d="M492.896 401.342C494.074 401.21 493.742 401.082 494.679 401.535C494.983 402.443 495.005 402.005 494.576 402.891C493.591 403.399 493.971 403.262 492.757 403.189C491.537 402.905 491.323 402.915 490.312 402.237L490.254 401.791C491.076 401.165 491.813 401.325 492.896 401.342Z"/><path fill="#092511" d="M466.323 318.258L466.749 318.513C467.836 320.046 466.933 321.375 465.612 322.324C464.995 321.965 465.043 321.985 464.72 321.341C464.803 320.142 465.599 319.287 466.323 318.258Z"/></svg>
